<svg viewBox="0 0 24 24" fill="none" xmlns="http://www.w3.org/2000/svg">
  <path d="M0 19.9757V6.02194C0 4.90868 0.766 4 1.7 4H22.3C23.236 4 24 4.91106 24 6.02194V19.9781C24 21.0913 23.234 22 22.3 22H1.7C0.766 22 0 21.0889 0 19.9757Z" fill="#F25700"></path>
  <path d="M8.64446 19H2.35554C2.1593 19 2 18.8279 2 18.616V9.38404C2 9.17207 2.1593 9 2.35554 9H8.64446C8.8407 9 9 9.17207 9 9.38404V18.6185C9 18.8279 8.8407 19 8.64446 19Z" fill="white"></path>
  <path d="M9 18.7331V19H2V18.7331C2 17.6859 3.36421 17.1792 4.87716 17.0729V17.0006C4.24037 16.8128 3.67098 16.3469 3.38977 15.5802C3.10159 15.4806 2.93659 14.5601 3.01328 14.4402C2.9575 14.0534 2.58101 11.0204 5.5 11C8.41202 11.0136 8.04017 14.0399 7.97975 14.4334C8.05412 14.5533 7.89143 15.4738 7.60325 15.5734C7.32902 16.3401 6.75963 16.8128 6.12284 17.0006V17.0662C7.64509 17.186 9 17.747 9 18.7331Z" fill="#111111"></path>
  <path d="M22.3 3H1.7C0.764 3 0 4.10774 0 5.45842V7H24V5.45842C24 4.10774 23.234 3 22.3 3Z" fill="#285293"></path>
  <path d="M17.6565 10.1817H12.4941C12.221 10.1817 12 9.91748 12 9.59087C12 9.26427 12.221 9 12.4941 9H17.6565C17.9296 9 18.1506 9.26427 18.1506 9.59087C18.15 9.74736 18.0978 9.89723 18.0052 10.0079C17.9127 10.1185 17.7874 10.181 17.6565 10.1817ZM19.5059 13.1212H12.4941C12.221 13.1212 12 12.8569 12 12.5303C12 12.2037 12.221 11.9394 12.4941 11.9394H19.5059C19.779 11.9394 20 12.2037 20 12.5303C19.9994 12.6868 19.9471 12.8367 19.8546 12.9473C19.7621 13.058 19.6367 13.1204 19.5059 13.1212ZM16.86 16.0606H12.4941C12.221 16.0606 12 15.7963 12 15.4697C12 15.1431 12.221 14.8788 12.4941 14.8788H16.86C17.1332 14.8788 17.3542 15.1431 17.3542 15.4697C17.3536 15.6262 17.3013 15.7761 17.2088 15.8867C17.1163 15.9974 16.9909 16.0599 16.86 16.0606ZM15.6716 19H12.4941C12.221 19 12 18.7357 12 18.4091C12 18.0825 12.221 17.8183 12.4941 17.8183H15.6716C15.9447 17.8183 16.1658 18.0825 16.1658 18.4091C16.1658 18.7357 15.9447 19 15.6716 19Z" fill="white"></path>
  <path d="M24 11.0063C23.9653 11.0042 23.9307 11 23.894 11C22.295 11 21 12.3425 21 14C21 15.6575 22.295 17 23.894 17C23.9286 17 23.9633 16.9958 24 16.9937V11.0063Z" fill="#285293"></path>
</svg>