<svg viewBox="0 0 24 24" fill="none" xmlns="http://www.w3.org/2000/svg">
  <path d="M21.5128 13.0065H12.0713C11.5653 12.9623 11.0644 13.1458 10.6769 13.5172C10.2894 13.8887 10.0465 14.4182 10.0008 14.9913L10 14.9993C10.0464 15.5798 10.2942 16.1158 10.6889 16.4893C11.0836 16.8628 11.593 17.0433 12.105 16.9912L12.0979 16.9921H21.5128C21.572 16.9983 21.6318 16.991 21.6886 16.9707C21.7453 16.9504 21.7979 16.9174 21.8433 16.8738C21.8887 16.8301 21.9259 16.7766 21.9528 16.7164C21.9797 16.6562 21.9958 16.5905 22 16.5232V13.4771C21.9846 13.3469 21.9281 13.2275 21.841 13.1409C21.7538 13.0544 21.642 13.0066 21.5261 13.0065H21.512H21.5128ZM12.0713 16.243C11.8494 16.243 11.6325 16.1684 11.448 16.0286C11.2634 15.8888 11.1196 15.6901 11.0347 15.4576C10.9498 15.2252 10.9276 14.9694 10.9709 14.7226C11.0142 14.4758 11.121 14.2491 11.2779 14.0712C11.4348 13.8933 11.6348 13.7721 11.8524 13.7231C12.07 13.674 12.2956 13.6992 12.5006 13.7955C12.7056 13.8917 12.8808 14.0548 13.0041 14.264C13.1274 14.4732 13.1932 14.7192 13.1932 14.9708V14.9744C13.1932 15.6754 12.6919 16.243 12.0744 16.243H12.0713Z" fill="#111111"></path>
  <path d="M5 7V2H17V7H15.8641V4.86453C15.7431 4.89233 15.6169 4.9085 15.4854 4.91302C15.0846 4.91179 14.7006 4.75787 14.4173 4.48489C14.1339 4.21192 13.9743 3.84206 13.9732 3.45612V3.453C13.9774 3.33144 13.9942 3.2106 14.0235 3.09229H7.94957C7.98048 3.21135 7.9974 3.33339 8 3.45612C7.99872 3.84206 7.83888 4.21183 7.55539 4.48466C7.27191 4.7575 6.88782 4.91121 6.48703 4.91224H6.48378C6.35081 4.90756 6.22108 4.89038 6.10919 4.86384V7H5Z" fill="#039800"></path>
  <path d="M11.3105 12.8973H21V9.97327C20.9585 9.53951 20.7467 9.13926 20.4101 8.85878C20.0735 8.5783 19.6391 8.44006 19.2006 8.47385H19.2062H3.81729C3.80419 8.45968 3.78627 8.45081 3.76697 8.44892C3.66027 8.39926 3.56893 8.32223 3.50243 8.22582C3.43592 8.1294 3.39667 8.01712 3.38874 7.90061V7.899C3.40166 7.75439 3.45888 7.61715 3.55273 7.50564C3.64659 7.39414 3.77259 7.31371 3.91388 7.27511L3.91875 7.27431V6C2.85792 6.04985 2 7.54927 2 9.42415V20.4966C2.04187 20.9298 2.25365 21.3295 2.58982 21.6097C2.92599 21.8899 3.35972 22.0283 3.79781 21.9952H3.79213H19.1811C19.6173 22.0271 20.0488 21.8888 20.3835 21.6098C20.7182 21.3309 20.9295 20.9334 20.9724 20.5022L20.9732 20.4958V17.5717H11.3373C9.77321 17.5717 8.51109 16.5217 8.51109 15.2474C8.51109 13.9481 9.7724 12.8981 11.3113 12.8981L11.3105 12.8973Z" fill="#F25700"></path>
  <path d="M19 7H17V6L17.0161 6.00134C17.4686 6.0506 17.8906 6.16898 18.2391 6.34441C18.5876 6.51985 18.8502 6.74606 19 7Z" fill="#F25700"></path>
</svg>